<mxfile host="app.diagrams.net" agent="Mozilla/5.0 (Windows NT 10.0; Win64; x64; rv:132.0) Gecko/20100101 Firefox/132.0" version="24.8.3">
  <diagram name="Page-1" id="3XOxG6FMkao1AMan2YhP">
    <mxGraphModel dx="1224" dy="875" grid="1" gridSize="10" guides="1" tooltips="1" connect="1" arrows="1" fold="1" page="1" pageScale="1" pageWidth="850" pageHeight="1100" math="0" shadow="0">
      <root>
        <mxCell id="0" />
        <mxCell id="1" parent="0" />
        <mxCell id="oJl91GnHJdicE9mI5OMN-5" value="&lt;u&gt;Irányítószám&lt;/u&gt;" style="ellipse;whiteSpace=wrap;html=1;" parent="1" vertex="1">
          <mxGeometry x="220" y="20" width="80" height="60" as="geometry" />
        </mxCell>
        <mxCell id="oJl91GnHJdicE9mI5OMN-7" value="Város" style="rounded=0;whiteSpace=wrap;html=1;" parent="1" vertex="1">
          <mxGeometry x="365" y="20" width="120" height="60" as="geometry" />
        </mxCell>
        <mxCell id="oJl91GnHJdicE9mI5OMN-8" value="Lakosság" style="ellipse;whiteSpace=wrap;html=1;" parent="1" vertex="1">
          <mxGeometry x="550" y="20" width="80" height="60" as="geometry" />
        </mxCell>
        <mxCell id="oJl91GnHJdicE9mI5OMN-9" value="Terület" style="ellipse;whiteSpace=wrap;html=1;" parent="1" vertex="1">
          <mxGeometry x="550" y="90" width="80" height="60" as="geometry" />
        </mxCell>
        <mxCell id="oJl91GnHJdicE9mI5OMN-10" value="Név" style="ellipse;whiteSpace=wrap;html=1;" parent="1" vertex="1">
          <mxGeometry x="220" y="90" width="80" height="60" as="geometry" />
        </mxCell>
        <mxCell id="oJl91GnHJdicE9mI5OMN-11" value="" style="endArrow=none;html=1;rounded=0;exitX=1;exitY=0.5;exitDx=0;exitDy=0;entryX=0;entryY=0.5;entryDx=0;entryDy=0;" parent="1" source="oJl91GnHJdicE9mI5OMN-5" target="oJl91GnHJdicE9mI5OMN-7" edge="1">
          <mxGeometry width="50" height="50" relative="1" as="geometry">
            <mxPoint x="400" y="470" as="sourcePoint" />
            <mxPoint x="450" y="420" as="targetPoint" />
          </mxGeometry>
        </mxCell>
        <mxCell id="oJl91GnHJdicE9mI5OMN-12" value="" style="endArrow=none;html=1;rounded=0;exitX=1;exitY=0.5;exitDx=0;exitDy=0;entryX=0;entryY=0.5;entryDx=0;entryDy=0;endFill=0;startArrow=none;startFill=0;" parent="1" source="oJl91GnHJdicE9mI5OMN-10" target="oJl91GnHJdicE9mI5OMN-7" edge="1">
          <mxGeometry width="50" height="50" relative="1" as="geometry">
            <mxPoint x="310" y="60" as="sourcePoint" />
            <mxPoint x="375" y="60" as="targetPoint" />
          </mxGeometry>
        </mxCell>
        <mxCell id="oJl91GnHJdicE9mI5OMN-13" value="" style="endArrow=none;html=1;rounded=0;exitX=1;exitY=0.5;exitDx=0;exitDy=0;entryX=0;entryY=0.5;entryDx=0;entryDy=0;" parent="1" source="oJl91GnHJdicE9mI5OMN-7" target="oJl91GnHJdicE9mI5OMN-8" edge="1">
          <mxGeometry width="50" height="50" relative="1" as="geometry">
            <mxPoint x="310" y="130" as="sourcePoint" />
            <mxPoint x="375" y="60" as="targetPoint" />
          </mxGeometry>
        </mxCell>
        <mxCell id="oJl91GnHJdicE9mI5OMN-14" value="" style="endArrow=none;html=1;rounded=0;entryX=0;entryY=0.5;entryDx=0;entryDy=0;exitX=1;exitY=0.5;exitDx=0;exitDy=0;" parent="1" source="oJl91GnHJdicE9mI5OMN-7" target="oJl91GnHJdicE9mI5OMN-9" edge="1">
          <mxGeometry width="50" height="50" relative="1" as="geometry">
            <mxPoint x="495" y="60" as="sourcePoint" />
            <mxPoint x="560" y="60" as="targetPoint" />
          </mxGeometry>
        </mxCell>
        <mxCell id="oJl91GnHJdicE9mI5OMN-15" value="tartalmaz" style="rhombus;whiteSpace=wrap;html=1;" parent="1" vertex="1">
          <mxGeometry x="393" y="140" width="65" height="60" as="geometry" />
        </mxCell>
        <mxCell id="oJl91GnHJdicE9mI5OMN-17" value="" style="endArrow=classic;html=1;rounded=0;entryX=0.5;entryY=1;entryDx=0;entryDy=0;exitX=0.5;exitY=0;exitDx=0;exitDy=0;" parent="1" source="oJl91GnHJdicE9mI5OMN-15" target="oJl91GnHJdicE9mI5OMN-7" edge="1">
          <mxGeometry width="50" height="50" relative="1" as="geometry">
            <mxPoint x="400" y="470" as="sourcePoint" />
            <mxPoint x="450" y="420" as="targetPoint" />
          </mxGeometry>
        </mxCell>
        <mxCell id="oJl91GnHJdicE9mI5OMN-19" value="" style="endArrow=classic;html=1;rounded=0;exitX=0.5;exitY=1;exitDx=0;exitDy=0;" parent="1" source="oJl91GnHJdicE9mI5OMN-15" target="oJl91GnHJdicE9mI5OMN-20" edge="1">
          <mxGeometry width="50" height="50" relative="1" as="geometry">
            <mxPoint x="436" y="150" as="sourcePoint" />
            <mxPoint x="530" y="210" as="targetPoint" />
          </mxGeometry>
        </mxCell>
        <mxCell id="oJl91GnHJdicE9mI5OMN-20" value="Menhely" style="rounded=0;whiteSpace=wrap;html=1;" parent="1" vertex="1">
          <mxGeometry x="365" y="240" width="120" height="60" as="geometry" />
        </mxCell>
        <mxCell id="oJl91GnHJdicE9mI5OMN-22" value="befogad" style="rhombus;whiteSpace=wrap;html=1;" parent="1" vertex="1">
          <mxGeometry x="500" y="400" width="65" height="60" as="geometry" />
        </mxCell>
        <mxCell id="oJl91GnHJdicE9mI5OMN-90" style="rounded=0;orthogonalLoop=1;jettySize=auto;html=1;exitX=0.5;exitY=1;exitDx=0;exitDy=0;entryX=0.5;entryY=0;entryDx=0;entryDy=0;endArrow=doubleBlock;endFill=1;" parent="1" source="oJl91GnHJdicE9mI5OMN-23" target="oJl91GnHJdicE9mI5OMN-76" edge="1">
          <mxGeometry relative="1" as="geometry" />
        </mxCell>
        <mxCell id="oJl91GnHJdicE9mI5OMN-23" value="rendelkezik" style="rhombus;whiteSpace=wrap;html=1;" parent="1" vertex="1">
          <mxGeometry x="330" y="730" width="77" height="70" as="geometry" />
        </mxCell>
        <mxCell id="oJl91GnHJdicE9mI5OMN-24" value="örökbefogad" style="rhombus;whiteSpace=wrap;html=1;" parent="1" vertex="1">
          <mxGeometry x="600.75" y="700" width="80" height="80" as="geometry" />
        </mxCell>
        <mxCell id="oJl91GnHJdicE9mI5OMN-92" style="rounded=0;orthogonalLoop=1;jettySize=auto;html=1;exitX=0;exitY=0.5;exitDx=0;exitDy=0;entryX=1;entryY=0.5;entryDx=0;entryDy=0;endArrow=none;endFill=0;" parent="1" source="oJl91GnHJdicE9mI5OMN-25" target="oJl91GnHJdicE9mI5OMN-73" edge="1">
          <mxGeometry relative="1" as="geometry" />
        </mxCell>
        <mxCell id="oJl91GnHJdicE9mI5OMN-94" style="rounded=0;orthogonalLoop=1;jettySize=auto;html=1;exitX=1;exitY=0.5;exitDx=0;exitDy=0;entryX=0;entryY=0.5;entryDx=0;entryDy=0;endArrow=none;endFill=0;" parent="1" source="oJl91GnHJdicE9mI5OMN-25" target="oJl91GnHJdicE9mI5OMN-70" edge="1">
          <mxGeometry relative="1" as="geometry" />
        </mxCell>
        <mxCell id="oJl91GnHJdicE9mI5OMN-95" style="rounded=0;orthogonalLoop=1;jettySize=auto;html=1;exitX=1;exitY=0.5;exitDx=0;exitDy=0;entryX=0;entryY=0.5;entryDx=0;entryDy=0;endArrow=none;endFill=0;startArrow=none;startFill=0;" parent="1" source="oJl91GnHJdicE9mI5OMN-25" target="oJl91GnHJdicE9mI5OMN-71" edge="1">
          <mxGeometry relative="1" as="geometry" />
        </mxCell>
        <mxCell id="oJl91GnHJdicE9mI5OMN-25" value="Állat" style="rounded=0;whiteSpace=wrap;html=1;" parent="1" vertex="1">
          <mxGeometry x="505" y="595" width="120" height="60" as="geometry" />
        </mxCell>
        <mxCell id="oJl91GnHJdicE9mI5OMN-27" value="dolgozik" style="rhombus;whiteSpace=wrap;html=1;" parent="1" vertex="1">
          <mxGeometry x="180" y="350" width="65" height="60" as="geometry" />
        </mxCell>
        <mxCell id="oJl91GnHJdicE9mI5OMN-28" value="" style="endArrow=classic;html=1;rounded=0;exitX=0.5;exitY=0;exitDx=0;exitDy=0;entryX=0.5;entryY=1;entryDx=0;entryDy=0;" parent="1" source="oJl91GnHJdicE9mI5OMN-22" target="oJl91GnHJdicE9mI5OMN-20" edge="1">
          <mxGeometry width="50" height="50" relative="1" as="geometry">
            <mxPoint x="560" y="320" as="sourcePoint" />
            <mxPoint x="610" y="270" as="targetPoint" />
          </mxGeometry>
        </mxCell>
        <mxCell id="oJl91GnHJdicE9mI5OMN-29" value="" style="endArrow=classic;html=1;rounded=0;exitX=0.5;exitY=0;exitDx=0;exitDy=0;entryX=0.5;entryY=1;entryDx=0;entryDy=0;" parent="1" source="oJl91GnHJdicE9mI5OMN-27" target="oJl91GnHJdicE9mI5OMN-20" edge="1">
          <mxGeometry width="50" height="50" relative="1" as="geometry">
            <mxPoint x="493" y="370" as="sourcePoint" />
            <mxPoint x="435" y="310" as="targetPoint" />
          </mxGeometry>
        </mxCell>
        <mxCell id="oJl91GnHJdicE9mI5OMN-30" value="" style="endArrow=doubleBlock;html=1;rounded=0;entryX=0.5;entryY=0;entryDx=0;entryDy=0;exitX=0.5;exitY=1;exitDx=0;exitDy=0;endFill=1;" parent="1" source="oJl91GnHJdicE9mI5OMN-22" target="oJl91GnHJdicE9mI5OMN-25" edge="1">
          <mxGeometry width="50" height="50" relative="1" as="geometry">
            <mxPoint x="532.5" y="500" as="sourcePoint" />
            <mxPoint x="610" y="360" as="targetPoint" />
          </mxGeometry>
        </mxCell>
        <mxCell id="oJl91GnHJdicE9mI5OMN-31" value="Dolgozó" style="rounded=0;whiteSpace=wrap;html=1;" parent="1" vertex="1">
          <mxGeometry x="120" y="470" width="120" height="60" as="geometry" />
        </mxCell>
        <mxCell id="oJl91GnHJdicE9mI5OMN-32" value="" style="endArrow=doubleBlock;html=1;rounded=0;entryX=0.5;entryY=0;entryDx=0;entryDy=0;exitX=0.5;exitY=1;exitDx=0;exitDy=0;endFill=1;" parent="1" source="oJl91GnHJdicE9mI5OMN-27" target="oJl91GnHJdicE9mI5OMN-31" edge="1">
          <mxGeometry width="50" height="50" relative="1" as="geometry">
            <mxPoint x="560" y="320" as="sourcePoint" />
            <mxPoint x="610" y="270" as="targetPoint" />
          </mxGeometry>
        </mxCell>
        <mxCell id="oJl91GnHJdicE9mI5OMN-33" value="" style="endArrow=doubleBlock;html=1;rounded=0;entryX=0.5;entryY=1;entryDx=0;entryDy=0;exitX=0.5;exitY=0;exitDx=0;exitDy=0;endFill=1;" parent="1" source="oJl91GnHJdicE9mI5OMN-24" target="oJl91GnHJdicE9mI5OMN-25" edge="1">
          <mxGeometry width="50" height="50" relative="1" as="geometry">
            <mxPoint x="560" y="320" as="sourcePoint" />
            <mxPoint x="610" y="270" as="targetPoint" />
          </mxGeometry>
        </mxCell>
        <mxCell id="oJl91GnHJdicE9mI5OMN-34" value="" style="endArrow=doubleBlock;html=1;rounded=0;entryX=0.5;entryY=1;entryDx=0;entryDy=0;exitX=0.5;exitY=0;exitDx=0;exitDy=0;endFill=1;" parent="1" source="oJl91GnHJdicE9mI5OMN-23" target="oJl91GnHJdicE9mI5OMN-25" edge="1">
          <mxGeometry width="50" height="50" relative="1" as="geometry">
            <mxPoint x="593" y="600" as="sourcePoint" />
            <mxPoint x="543" y="540" as="targetPoint" />
          </mxGeometry>
        </mxCell>
        <mxCell id="oJl91GnHJdicE9mI5OMN-35" value="Név" style="ellipse;whiteSpace=wrap;html=1;" parent="1" vertex="1">
          <mxGeometry x="20" y="550" width="80" height="60" as="geometry" />
        </mxCell>
        <mxCell id="oJl91GnHJdicE9mI5OMN-36" value="&lt;u&gt;Személyi szám&lt;/u&gt;" style="ellipse;whiteSpace=wrap;html=1;" parent="1" vertex="1">
          <mxGeometry x="20" y="460" width="80" height="60" as="geometry" />
        </mxCell>
        <mxCell id="oJl91GnHJdicE9mI5OMN-52" style="rounded=0;orthogonalLoop=1;jettySize=auto;html=1;entryX=0;entryY=0.5;entryDx=0;entryDy=0;endArrow=none;endFill=0;" parent="1" source="oJl91GnHJdicE9mI5OMN-38" target="oJl91GnHJdicE9mI5OMN-20" edge="1">
          <mxGeometry relative="1" as="geometry" />
        </mxCell>
        <mxCell id="oJl91GnHJdicE9mI5OMN-38" value="&lt;div&gt;&lt;u&gt;Nyilántartási&lt;/u&gt;&lt;/div&gt;&lt;div&gt;&lt;u&gt;ayonosító&lt;br&gt;&lt;/u&gt;&lt;/div&gt;" style="ellipse;whiteSpace=wrap;html=1;" parent="1" vertex="1">
          <mxGeometry x="160" y="190" width="80" height="60" as="geometry" />
        </mxCell>
        <mxCell id="oJl91GnHJdicE9mI5OMN-39" value="Cím" style="ellipse;whiteSpace=wrap;html=1;" parent="1" vertex="1">
          <mxGeometry x="586.25" y="170" width="80" height="60" as="geometry" />
        </mxCell>
        <mxCell id="oJl91GnHJdicE9mI5OMN-40" value="Utca" style="ellipse;whiteSpace=wrap;html=1;" parent="1" vertex="1">
          <mxGeometry x="740" y="150" width="80" height="60" as="geometry" />
        </mxCell>
        <mxCell id="oJl91GnHJdicE9mI5OMN-41" value="Házszám" style="ellipse;whiteSpace=wrap;html=1;" parent="1" vertex="1">
          <mxGeometry x="740" y="220" width="80" height="60" as="geometry" />
        </mxCell>
        <mxCell id="oJl91GnHJdicE9mI5OMN-42" value="Férőhely" style="ellipse;whiteSpace=wrap;html=1;" parent="1" vertex="1">
          <mxGeometry x="586.25" y="240" width="80" height="60" as="geometry" />
        </mxCell>
        <mxCell id="oJl91GnHJdicE9mI5OMN-43" value="Név" style="ellipse;whiteSpace=wrap;html=1;" parent="1" vertex="1">
          <mxGeometry x="160" y="260" width="80" height="60" as="geometry" />
        </mxCell>
        <mxCell id="oJl91GnHJdicE9mI5OMN-45" value="Nem" style="ellipse;whiteSpace=wrap;html=1;" parent="1" vertex="1">
          <mxGeometry x="285" y="540" width="80" height="60" as="geometry" />
        </mxCell>
        <mxCell id="oJl91GnHJdicE9mI5OMN-46" value="Szül. idő" style="ellipse;whiteSpace=wrap;html=1;" parent="1" vertex="1">
          <mxGeometry x="285" y="470" width="80" height="60" as="geometry" />
        </mxCell>
        <mxCell id="oJl91GnHJdicE9mI5OMN-47" value="" style="endArrow=none;html=1;rounded=0;exitX=1;exitY=0.5;exitDx=0;exitDy=0;entryX=0;entryY=0.5;entryDx=0;entryDy=0;" parent="1" source="oJl91GnHJdicE9mI5OMN-36" target="oJl91GnHJdicE9mI5OMN-31" edge="1">
          <mxGeometry width="50" height="50" relative="1" as="geometry">
            <mxPoint x="450" y="470" as="sourcePoint" />
            <mxPoint x="500" y="420" as="targetPoint" />
          </mxGeometry>
        </mxCell>
        <mxCell id="oJl91GnHJdicE9mI5OMN-48" value="" style="endArrow=none;html=1;rounded=0;exitX=0.5;exitY=0;exitDx=0;exitDy=0;entryX=0;entryY=0.5;entryDx=0;entryDy=0;startArrow=none;startFill=0;" parent="1" source="oJl91GnHJdicE9mI5OMN-35" target="oJl91GnHJdicE9mI5OMN-31" edge="1">
          <mxGeometry width="50" height="50" relative="1" as="geometry">
            <mxPoint x="110" y="500" as="sourcePoint" />
            <mxPoint x="130" y="510" as="targetPoint" />
          </mxGeometry>
        </mxCell>
        <mxCell id="oJl91GnHJdicE9mI5OMN-49" value="" style="endArrow=none;html=1;rounded=0;exitX=0.5;exitY=0;exitDx=0;exitDy=0;entryX=0.5;entryY=1;entryDx=0;entryDy=0;" parent="1" source="oJl91GnHJdicE9mI5OMN-61" target="oJl91GnHJdicE9mI5OMN-31" edge="1">
          <mxGeometry width="50" height="50" relative="1" as="geometry">
            <mxPoint x="180" y="590" as="sourcePoint" />
            <mxPoint x="130" y="510" as="targetPoint" />
          </mxGeometry>
        </mxCell>
        <mxCell id="oJl91GnHJdicE9mI5OMN-50" value="" style="endArrow=none;html=1;rounded=0;exitX=0;exitY=0.5;exitDx=0;exitDy=0;entryX=1;entryY=0.5;entryDx=0;entryDy=0;" parent="1" source="oJl91GnHJdicE9mI5OMN-45" target="oJl91GnHJdicE9mI5OMN-31" edge="1">
          <mxGeometry width="50" height="50" relative="1" as="geometry">
            <mxPoint x="190" y="600" as="sourcePoint" />
            <mxPoint x="190" y="540" as="targetPoint" />
          </mxGeometry>
        </mxCell>
        <mxCell id="oJl91GnHJdicE9mI5OMN-51" value="" style="endArrow=none;html=1;rounded=0;exitX=0;exitY=0.5;exitDx=0;exitDy=0;entryX=1;entryY=0.5;entryDx=0;entryDy=0;" parent="1" source="oJl91GnHJdicE9mI5OMN-46" target="oJl91GnHJdicE9mI5OMN-31" edge="1">
          <mxGeometry width="50" height="50" relative="1" as="geometry">
            <mxPoint x="300" y="550" as="sourcePoint" />
            <mxPoint x="250" y="510" as="targetPoint" />
          </mxGeometry>
        </mxCell>
        <mxCell id="oJl91GnHJdicE9mI5OMN-53" style="rounded=0;orthogonalLoop=1;jettySize=auto;html=1;entryX=0;entryY=0.5;entryDx=0;entryDy=0;endArrow=none;endFill=0;exitX=1;exitY=0.5;exitDx=0;exitDy=0;startArrow=none;startFill=0;" parent="1" source="oJl91GnHJdicE9mI5OMN-43" target="oJl91GnHJdicE9mI5OMN-20" edge="1">
          <mxGeometry relative="1" as="geometry">
            <mxPoint x="247" y="241" as="sourcePoint" />
            <mxPoint x="375" y="280" as="targetPoint" />
          </mxGeometry>
        </mxCell>
        <mxCell id="oJl91GnHJdicE9mI5OMN-54" style="rounded=0;orthogonalLoop=1;jettySize=auto;html=1;entryX=0;entryY=0.5;entryDx=0;entryDy=0;endArrow=none;endFill=0;exitX=1;exitY=0.5;exitDx=0;exitDy=0;" parent="1" source="oJl91GnHJdicE9mI5OMN-20" target="oJl91GnHJdicE9mI5OMN-39" edge="1">
          <mxGeometry relative="1" as="geometry">
            <mxPoint x="257" y="251" as="sourcePoint" />
            <mxPoint x="385" y="290" as="targetPoint" />
          </mxGeometry>
        </mxCell>
        <mxCell id="oJl91GnHJdicE9mI5OMN-55" style="rounded=0;orthogonalLoop=1;jettySize=auto;html=1;entryX=1;entryY=0.5;entryDx=0;entryDy=0;endArrow=none;endFill=0;exitX=0;exitY=0.5;exitDx=0;exitDy=0;" parent="1" source="oJl91GnHJdicE9mI5OMN-42" target="oJl91GnHJdicE9mI5OMN-20" edge="1">
          <mxGeometry relative="1" as="geometry">
            <mxPoint x="267" y="261" as="sourcePoint" />
            <mxPoint x="395" y="300" as="targetPoint" />
          </mxGeometry>
        </mxCell>
        <mxCell id="oJl91GnHJdicE9mI5OMN-56" style="rounded=0;orthogonalLoop=1;jettySize=auto;html=1;entryX=0;entryY=0.5;entryDx=0;entryDy=0;endArrow=none;endFill=0;exitX=1;exitY=0.5;exitDx=0;exitDy=0;" parent="1" source="oJl91GnHJdicE9mI5OMN-39" target="oJl91GnHJdicE9mI5OMN-40" edge="1">
          <mxGeometry relative="1" as="geometry">
            <mxPoint x="277" y="271" as="sourcePoint" />
            <mxPoint x="405" y="310" as="targetPoint" />
          </mxGeometry>
        </mxCell>
        <mxCell id="oJl91GnHJdicE9mI5OMN-57" style="rounded=0;orthogonalLoop=1;jettySize=auto;html=1;entryX=0;entryY=0.5;entryDx=0;entryDy=0;endArrow=none;endFill=0;exitX=1;exitY=0.5;exitDx=0;exitDy=0;" parent="1" source="oJl91GnHJdicE9mI5OMN-39" target="oJl91GnHJdicE9mI5OMN-41" edge="1">
          <mxGeometry relative="1" as="geometry">
            <mxPoint x="287" y="281" as="sourcePoint" />
            <mxPoint x="415" y="320" as="targetPoint" />
          </mxGeometry>
        </mxCell>
        <mxCell id="oJl91GnHJdicE9mI5OMN-58" value="Irányító szám" style="ellipse;whiteSpace=wrap;html=1;" parent="1" vertex="1">
          <mxGeometry x="740" y="290" width="80" height="60" as="geometry" />
        </mxCell>
        <mxCell id="oJl91GnHJdicE9mI5OMN-60" style="rounded=0;orthogonalLoop=1;jettySize=auto;html=1;entryX=1;entryY=0.5;entryDx=0;entryDy=0;endArrow=none;endFill=0;exitX=0;exitY=0.5;exitDx=0;exitDy=0;" parent="1" source="oJl91GnHJdicE9mI5OMN-58" target="oJl91GnHJdicE9mI5OMN-39" edge="1">
          <mxGeometry relative="1" as="geometry">
            <mxPoint x="250" y="300" as="sourcePoint" />
            <mxPoint x="375" y="280" as="targetPoint" />
          </mxGeometry>
        </mxCell>
        <mxCell id="oJl91GnHJdicE9mI5OMN-61" value="Lakcím" style="ellipse;whiteSpace=wrap;html=1;" parent="1" vertex="1">
          <mxGeometry x="100" y="590" width="80" height="60" as="geometry" />
        </mxCell>
        <mxCell id="oJl91GnHJdicE9mI5OMN-62" value="Utca" style="ellipse;whiteSpace=wrap;html=1;" parent="1" vertex="1">
          <mxGeometry x="185" y="670" width="80" height="60" as="geometry" />
        </mxCell>
        <mxCell id="oJl91GnHJdicE9mI5OMN-63" value="Házszám" style="ellipse;whiteSpace=wrap;html=1;" parent="1" vertex="1">
          <mxGeometry x="95" y="670" width="80" height="60" as="geometry" />
        </mxCell>
        <mxCell id="oJl91GnHJdicE9mI5OMN-64" style="rounded=0;orthogonalLoop=1;jettySize=auto;html=1;entryX=0.5;entryY=0;entryDx=0;entryDy=0;endArrow=none;endFill=0;exitX=0.5;exitY=1;exitDx=0;exitDy=0;" parent="1" source="oJl91GnHJdicE9mI5OMN-61" target="oJl91GnHJdicE9mI5OMN-62" edge="1">
          <mxGeometry relative="1" as="geometry">
            <mxPoint x="-195.5" y="771" as="sourcePoint" />
            <mxPoint x="-67.5" y="810" as="targetPoint" />
          </mxGeometry>
        </mxCell>
        <mxCell id="oJl91GnHJdicE9mI5OMN-65" style="rounded=0;orthogonalLoop=1;jettySize=auto;html=1;entryX=0.5;entryY=0;entryDx=0;entryDy=0;endArrow=none;endFill=0;exitX=0.5;exitY=1;exitDx=0;exitDy=0;" parent="1" source="oJl91GnHJdicE9mI5OMN-61" target="oJl91GnHJdicE9mI5OMN-63" edge="1">
          <mxGeometry relative="1" as="geometry">
            <mxPoint x="-185.5" y="781" as="sourcePoint" />
            <mxPoint x="-57.5" y="820" as="targetPoint" />
          </mxGeometry>
        </mxCell>
        <mxCell id="oJl91GnHJdicE9mI5OMN-66" value="Irányító szám" style="ellipse;whiteSpace=wrap;html=1;" parent="1" vertex="1">
          <mxGeometry x="5" y="670" width="80" height="60" as="geometry" />
        </mxCell>
        <mxCell id="oJl91GnHJdicE9mI5OMN-67" style="rounded=0;orthogonalLoop=1;jettySize=auto;html=1;entryX=0.5;entryY=1;entryDx=0;entryDy=0;endArrow=none;endFill=0;exitX=0.5;exitY=0;exitDx=0;exitDy=0;" parent="1" source="oJl91GnHJdicE9mI5OMN-66" target="oJl91GnHJdicE9mI5OMN-61" edge="1">
          <mxGeometry relative="1" as="geometry">
            <mxPoint x="-222.5" y="800" as="sourcePoint" />
            <mxPoint x="-97.5" y="780" as="targetPoint" />
          </mxGeometry>
        </mxCell>
        <mxCell id="oJl91GnHJdicE9mI5OMN-68" value="Édesanyja leánykori neve" style="ellipse;whiteSpace=wrap;html=1;" parent="1" vertex="1">
          <mxGeometry x="200" y="585" width="100" height="70" as="geometry" />
        </mxCell>
        <mxCell id="oJl91GnHJdicE9mI5OMN-69" value="" style="endArrow=none;html=1;rounded=0;exitX=0.5;exitY=0;exitDx=0;exitDy=0;entryX=0.5;entryY=1;entryDx=0;entryDy=0;" parent="1" source="oJl91GnHJdicE9mI5OMN-68" target="oJl91GnHJdicE9mI5OMN-31" edge="1">
          <mxGeometry width="50" height="50" relative="1" as="geometry">
            <mxPoint x="290" y="490" as="sourcePoint" />
            <mxPoint x="250" y="510" as="targetPoint" />
          </mxGeometry>
        </mxCell>
        <mxCell id="oJl91GnHJdicE9mI5OMN-70" value="&lt;u&gt;Azonosító kód&lt;br&gt;&lt;/u&gt;" style="ellipse;whiteSpace=wrap;html=1;" parent="1" vertex="1">
          <mxGeometry x="666.25" y="525" width="80" height="60" as="geometry" />
        </mxCell>
        <mxCell id="oJl91GnHJdicE9mI5OMN-71" value="Név" style="ellipse;whiteSpace=wrap;html=1;" parent="1" vertex="1">
          <mxGeometry x="670" y="610" width="80" height="60" as="geometry" />
        </mxCell>
        <mxCell id="oJl91GnHJdicE9mI5OMN-93" style="rounded=0;orthogonalLoop=1;jettySize=auto;html=1;exitX=1;exitY=0.5;exitDx=0;exitDy=0;entryX=0;entryY=0.5;entryDx=0;entryDy=0;endArrow=none;endFill=0;" parent="1" source="oJl91GnHJdicE9mI5OMN-72" target="oJl91GnHJdicE9mI5OMN-25" edge="1">
          <mxGeometry relative="1" as="geometry" />
        </mxCell>
        <mxCell id="oJl91GnHJdicE9mI5OMN-72" value="Faj" style="ellipse;whiteSpace=wrap;html=1;" parent="1" vertex="1">
          <mxGeometry x="385.5" y="550" width="80" height="60" as="geometry" />
        </mxCell>
        <mxCell id="oJl91GnHJdicE9mI5OMN-73" value="Életkor" style="ellipse;whiteSpace=wrap;html=1;" parent="1" vertex="1">
          <mxGeometry x="385" y="620" width="80" height="60" as="geometry" />
        </mxCell>
        <mxCell id="oJl91GnHJdicE9mI5OMN-89" style="rounded=0;orthogonalLoop=1;jettySize=auto;html=1;exitX=0.5;exitY=0;exitDx=0;exitDy=0;startArrow=classic;startFill=1;endArrow=none;endFill=0;entryX=0.5;entryY=1;entryDx=0;entryDy=0;" parent="1" source="oJl91GnHJdicE9mI5OMN-75" target="oJl91GnHJdicE9mI5OMN-24" edge="1">
          <mxGeometry relative="1" as="geometry">
            <mxPoint x="580" y="790" as="targetPoint" />
          </mxGeometry>
        </mxCell>
        <mxCell id="oJl91GnHJdicE9mI5OMN-75" value="Örökbefogadó" style="rounded=0;whiteSpace=wrap;html=1;" parent="1" vertex="1">
          <mxGeometry x="495" y="850" width="120" height="60" as="geometry" />
        </mxCell>
        <mxCell id="oJl91GnHJdicE9mI5OMN-96" style="rounded=0;orthogonalLoop=1;jettySize=auto;html=1;exitX=0;exitY=0.5;exitDx=0;exitDy=0;entryX=1;entryY=0.5;entryDx=0;entryDy=0;endArrow=none;endFill=0;" parent="1" source="oJl91GnHJdicE9mI5OMN-76" target="oJl91GnHJdicE9mI5OMN-77" edge="1">
          <mxGeometry relative="1" as="geometry" />
        </mxCell>
        <mxCell id="oJl91GnHJdicE9mI5OMN-76" value="Betegség" style="rounded=0;whiteSpace=wrap;html=1;" parent="1" vertex="1">
          <mxGeometry x="180" y="840" width="120" height="60" as="geometry" />
        </mxCell>
        <mxCell id="oJl91GnHJdicE9mI5OMN-77" value="&lt;u&gt;Latin név&lt;/u&gt;" style="ellipse;whiteSpace=wrap;html=1;" parent="1" vertex="1">
          <mxGeometry x="50" y="855" width="80" height="60" as="geometry" />
        </mxCell>
        <mxCell id="oJl91GnHJdicE9mI5OMN-98" style="rounded=0;orthogonalLoop=1;jettySize=auto;html=1;exitX=0.5;exitY=0;exitDx=0;exitDy=0;entryX=0.5;entryY=1;entryDx=0;entryDy=0;endArrow=none;endFill=0;" parent="1" source="oJl91GnHJdicE9mI5OMN-79" target="oJl91GnHJdicE9mI5OMN-76" edge="1">
          <mxGeometry relative="1" as="geometry" />
        </mxCell>
        <mxCell id="oJl91GnHJdicE9mI5OMN-79" value="Gyógyítás módja" style="ellipse;whiteSpace=wrap;html=1;" parent="1" vertex="1">
          <mxGeometry x="115" y="980" width="80" height="60" as="geometry" />
        </mxCell>
        <mxCell id="oJl91GnHJdicE9mI5OMN-97" style="rounded=0;orthogonalLoop=1;jettySize=auto;html=1;exitX=1;exitY=0.5;exitDx=0;exitDy=0;entryX=0;entryY=0.5;entryDx=0;entryDy=0;endArrow=none;endFill=0;startArrow=none;startFill=0;" parent="1" source="oJl91GnHJdicE9mI5OMN-80" target="oJl91GnHJdicE9mI5OMN-76" edge="1">
          <mxGeometry relative="1" as="geometry">
            <mxPoint x="160" y="910" as="targetPoint" />
          </mxGeometry>
        </mxCell>
        <mxCell id="oJl91GnHJdicE9mI5OMN-80" value="Név" style="ellipse;whiteSpace=wrap;html=1;" parent="1" vertex="1">
          <mxGeometry x="50" y="930" width="80" height="60" as="geometry" />
        </mxCell>
        <mxCell id="oJl91GnHJdicE9mI5OMN-99" style="rounded=0;orthogonalLoop=1;jettySize=auto;html=1;exitX=0.5;exitY=0;exitDx=0;exitDy=0;entryX=0.5;entryY=1;entryDx=0;entryDy=0;endArrow=none;endFill=0;" parent="1" source="oJl91GnHJdicE9mI5OMN-81" target="oJl91GnHJdicE9mI5OMN-76" edge="1">
          <mxGeometry relative="1" as="geometry">
            <mxPoint x="250" y="930" as="targetPoint" />
          </mxGeometry>
        </mxCell>
        <mxCell id="oJl91GnHJdicE9mI5OMN-81" value="Gyógyulási idő" style="ellipse;whiteSpace=wrap;html=1;" parent="1" vertex="1">
          <mxGeometry x="220" y="980" width="80" height="60" as="geometry" />
        </mxCell>
        <mxCell id="oJl91GnHJdicE9mI5OMN-82" value="" style="ellipse;whiteSpace=wrap;html=1;shadow=0;strokeColor=default;perimeterSpacing=0;" parent="1" vertex="1">
          <mxGeometry x="295" y="940" width="80" height="60" as="geometry" />
        </mxCell>
        <mxCell id="oJl91GnHJdicE9mI5OMN-100" style="rounded=0;orthogonalLoop=1;jettySize=auto;html=1;exitX=0.5;exitY=0;exitDx=0;exitDy=0;entryX=0.5;entryY=1;entryDx=0;entryDy=0;endArrow=none;endFill=0;" parent="1" source="oJl91GnHJdicE9mI5OMN-82" target="oJl91GnHJdicE9mI5OMN-76" edge="1">
          <mxGeometry relative="1" as="geometry">
            <mxPoint x="230" y="970" as="targetPoint" />
          </mxGeometry>
        </mxCell>
        <mxCell id="oJl91GnHJdicE9mI5OMN-83" value="Tünet" style="ellipse;whiteSpace=wrap;html=1;" parent="1" vertex="1">
          <mxGeometry x="301.25" y="945" width="67.5" height="50" as="geometry" />
        </mxCell>
        <mxCell id="oJl91GnHJdicE9mI5OMN-101" style="rounded=0;orthogonalLoop=1;jettySize=auto;html=1;exitX=1;exitY=0.5;exitDx=0;exitDy=0;entryX=0;entryY=0.5;entryDx=0;entryDy=0;endArrow=none;endFill=0;" parent="1" source="oJl91GnHJdicE9mI5OMN-85" target="oJl91GnHJdicE9mI5OMN-75" edge="1">
          <mxGeometry relative="1" as="geometry" />
        </mxCell>
        <mxCell id="oJl91GnHJdicE9mI5OMN-85" value="&lt;u&gt;Személyi szám&lt;/u&gt;" style="ellipse;whiteSpace=wrap;html=1;" parent="1" vertex="1">
          <mxGeometry x="360" y="850" width="80" height="60" as="geometry" />
        </mxCell>
        <mxCell id="oJl91GnHJdicE9mI5OMN-102" style="rounded=0;orthogonalLoop=1;jettySize=auto;html=1;exitX=0.5;exitY=0;exitDx=0;exitDy=0;entryX=0;entryY=0.5;entryDx=0;entryDy=0;endArrow=none;endFill=0;startArrow=none;startFill=0;" parent="1" source="oJl91GnHJdicE9mI5OMN-86" target="oJl91GnHJdicE9mI5OMN-75" edge="1">
          <mxGeometry relative="1" as="geometry" />
        </mxCell>
        <mxCell id="oJl91GnHJdicE9mI5OMN-86" value="Név" style="ellipse;whiteSpace=wrap;html=1;" parent="1" vertex="1">
          <mxGeometry x="395" y="930" width="80" height="60" as="geometry" />
        </mxCell>
        <mxCell id="oJl91GnHJdicE9mI5OMN-103" style="rounded=0;orthogonalLoop=1;jettySize=auto;html=1;exitX=0.5;exitY=0;exitDx=0;exitDy=0;entryX=0.5;entryY=1;entryDx=0;entryDy=0;endArrow=none;endFill=0;" parent="1" source="oJl91GnHJdicE9mI5OMN-87" target="oJl91GnHJdicE9mI5OMN-75" edge="1">
          <mxGeometry relative="1" as="geometry" />
        </mxCell>
        <mxCell id="oJl91GnHJdicE9mI5OMN-87" value="Szül. idő" style="ellipse;whiteSpace=wrap;html=1;" parent="1" vertex="1">
          <mxGeometry x="458" y="980" width="80" height="60" as="geometry" />
        </mxCell>
        <mxCell id="36u0671AOfZQsiYe3x8z-2" style="rounded=0;orthogonalLoop=1;jettySize=auto;html=1;exitX=0;exitY=0.5;exitDx=0;exitDy=0;entryX=1;entryY=0.5;entryDx=0;entryDy=0;endArrow=none;endFill=0;" edge="1" parent="1" source="36u0671AOfZQsiYe3x8z-1" target="oJl91GnHJdicE9mI5OMN-31">
          <mxGeometry relative="1" as="geometry" />
        </mxCell>
        <mxCell id="36u0671AOfZQsiYe3x8z-1" value="Beosztás" style="ellipse;whiteSpace=wrap;html=1;" vertex="1" parent="1">
          <mxGeometry x="285" y="390" width="80" height="60" as="geometry" />
        </mxCell>
        <mxCell id="36u0671AOfZQsiYe3x8z-5" style="rounded=0;orthogonalLoop=1;jettySize=auto;html=1;exitX=0;exitY=0.5;exitDx=0;exitDy=0;entryX=1;entryY=0.5;entryDx=0;entryDy=0;endArrow=none;endFill=0;" edge="1" parent="1" source="36u0671AOfZQsiYe3x8z-3" target="oJl91GnHJdicE9mI5OMN-20">
          <mxGeometry relative="1" as="geometry" />
        </mxCell>
        <mxCell id="36u0671AOfZQsiYe3x8z-3" value="" style="ellipse;whiteSpace=wrap;html=1;shadow=0;strokeColor=default;perimeterSpacing=0;" vertex="1" parent="1">
          <mxGeometry x="586.25" y="330" width="80" height="60" as="geometry" />
        </mxCell>
        <mxCell id="36u0671AOfZQsiYe3x8z-4" value="Telefonszám" style="ellipse;whiteSpace=wrap;html=1;" vertex="1" parent="1">
          <mxGeometry x="592.5" y="335" width="67.5" height="50" as="geometry" />
        </mxCell>
        <mxCell id="36u0671AOfZQsiYe3x8z-14" style="rounded=0;orthogonalLoop=1;jettySize=auto;html=1;exitX=0;exitY=0.5;exitDx=0;exitDy=0;entryX=1;entryY=0.5;entryDx=0;entryDy=0;endArrow=none;endFill=0;" edge="1" parent="1" source="36u0671AOfZQsiYe3x8z-6" target="oJl91GnHJdicE9mI5OMN-75">
          <mxGeometry relative="1" as="geometry" />
        </mxCell>
        <mxCell id="36u0671AOfZQsiYe3x8z-6" value="Lakcím" style="ellipse;whiteSpace=wrap;html=1;" vertex="1" parent="1">
          <mxGeometry x="666.25" y="870" width="80" height="60" as="geometry" />
        </mxCell>
        <mxCell id="36u0671AOfZQsiYe3x8z-7" value="Utca" style="ellipse;whiteSpace=wrap;html=1;" vertex="1" parent="1">
          <mxGeometry x="740" y="995" width="80" height="60" as="geometry" />
        </mxCell>
        <mxCell id="36u0671AOfZQsiYe3x8z-8" value="Házszám" style="ellipse;whiteSpace=wrap;html=1;" vertex="1" parent="1">
          <mxGeometry x="645" y="995" width="80" height="60" as="geometry" />
        </mxCell>
        <mxCell id="36u0671AOfZQsiYe3x8z-9" style="rounded=0;orthogonalLoop=1;jettySize=auto;html=1;entryX=0.5;entryY=0;entryDx=0;entryDy=0;endArrow=none;endFill=0;exitX=0.5;exitY=1;exitDx=0;exitDy=0;" edge="1" parent="1" source="36u0671AOfZQsiYe3x8z-6" target="36u0671AOfZQsiYe3x8z-7">
          <mxGeometry relative="1" as="geometry">
            <mxPoint x="379.5" y="1096" as="sourcePoint" />
            <mxPoint x="507.5" y="1135" as="targetPoint" />
          </mxGeometry>
        </mxCell>
        <mxCell id="36u0671AOfZQsiYe3x8z-10" style="rounded=0;orthogonalLoop=1;jettySize=auto;html=1;entryX=0.5;entryY=0;entryDx=0;entryDy=0;endArrow=none;endFill=0;exitX=0.5;exitY=1;exitDx=0;exitDy=0;" edge="1" parent="1" source="36u0671AOfZQsiYe3x8z-6" target="36u0671AOfZQsiYe3x8z-8">
          <mxGeometry relative="1" as="geometry">
            <mxPoint x="389.5" y="1106" as="sourcePoint" />
            <mxPoint x="517.5" y="1145" as="targetPoint" />
          </mxGeometry>
        </mxCell>
        <mxCell id="36u0671AOfZQsiYe3x8z-11" value="Irányító szám" style="ellipse;whiteSpace=wrap;html=1;" vertex="1" parent="1">
          <mxGeometry x="580" y="945" width="80" height="60" as="geometry" />
        </mxCell>
        <mxCell id="36u0671AOfZQsiYe3x8z-12" style="rounded=0;orthogonalLoop=1;jettySize=auto;html=1;entryX=0.5;entryY=1;entryDx=0;entryDy=0;endArrow=none;endFill=0;exitX=0.5;exitY=0;exitDx=0;exitDy=0;" edge="1" parent="1" source="36u0671AOfZQsiYe3x8z-11" target="36u0671AOfZQsiYe3x8z-6">
          <mxGeometry relative="1" as="geometry">
            <mxPoint x="352.5" y="1125" as="sourcePoint" />
            <mxPoint x="477.5" y="1105" as="targetPoint" />
          </mxGeometry>
        </mxCell>
      </root>
    </mxGraphModel>
  </diagram>
</mxfile>
